<mxfile host="Electron" modified="2024-02-08T02:58:12.738Z" agent="Mozilla/5.0 (Macintosh; Intel Mac OS X 10_15_7) AppleWebKit/537.36 (KHTML, like Gecko) draw.io/23.0.2 Chrome/120.0.6099.109 Electron/28.1.0 Safari/537.36" etag="KU4Sv08Rq1MJ99E3AKrk" version="23.0.2" type="device">
  <diagram id="R2lEEEUBdFMjLlhIrx00" name="Page-1">
    <mxGraphModel dx="2203" dy="1695" grid="1" gridSize="10" guides="1" tooltips="1" connect="1" arrows="1" fold="1" page="1" pageScale="1" pageWidth="850" pageHeight="1100" math="0" shadow="0" extFonts="Permanent Marker^https://fonts.googleapis.com/css?family=Permanent+Marker">
      <root>
        <mxCell id="0" />
        <mxCell id="1" parent="0" />
        <mxCell id="K9eEVIQUE-SVmg0WG71K-1" value="USER" style="rounded=0;whiteSpace=wrap;html=1;" parent="1" vertex="1">
          <mxGeometry x="700" y="80" width="120" height="60" as="geometry" />
        </mxCell>
        <mxCell id="K9eEVIQUE-SVmg0WG71K-2" value="" style="endArrow=none;html=1;rounded=0;entryX=0.5;entryY=1;entryDx=0;entryDy=0;" parent="1" target="K9eEVIQUE-SVmg0WG71K-1" edge="1">
          <mxGeometry width="50" height="50" relative="1" as="geometry">
            <mxPoint x="760" y="230" as="sourcePoint" />
            <mxPoint x="845" y="320" as="targetPoint" />
          </mxGeometry>
        </mxCell>
        <mxCell id="K9eEVIQUE-SVmg0WG71K-4" value="username" style="ellipse;whiteSpace=wrap;html=1;" parent="1" vertex="1">
          <mxGeometry x="885" y="90" width="90" height="40" as="geometry" />
        </mxCell>
        <mxCell id="K9eEVIQUE-SVmg0WG71K-5" value="" style="endArrow=none;html=1;rounded=0;exitX=1;exitY=0.5;exitDx=0;exitDy=0;entryX=0;entryY=0.5;entryDx=0;entryDy=0;" parent="1" source="K9eEVIQUE-SVmg0WG71K-1" target="K9eEVIQUE-SVmg0WG71K-4" edge="1">
          <mxGeometry width="50" height="50" relative="1" as="geometry">
            <mxPoint x="795" y="260" as="sourcePoint" />
            <mxPoint x="845" y="210" as="targetPoint" />
          </mxGeometry>
        </mxCell>
        <mxCell id="K9eEVIQUE-SVmg0WG71K-6" value="ATHLETE" style="rounded=0;whiteSpace=wrap;html=1;" parent="1" vertex="1">
          <mxGeometry x="535" y="300" width="120" height="60" as="geometry" />
        </mxCell>
        <mxCell id="K9eEVIQUE-SVmg0WG71K-8" value="ORGANIZATION" style="rounded=0;whiteSpace=wrap;html=1;" parent="1" vertex="1">
          <mxGeometry x="820" y="300" width="120" height="60" as="geometry" />
        </mxCell>
        <mxCell id="K9eEVIQUE-SVmg0WG71K-9" value="OFFICIAL" style="rounded=0;whiteSpace=wrap;html=1;" parent="1" vertex="1">
          <mxGeometry x="1055" y="210" width="120" height="60" as="geometry" />
        </mxCell>
        <mxCell id="K9eEVIQUE-SVmg0WG71K-10" value="d" style="ellipse;whiteSpace=wrap;html=1;aspect=fixed;" parent="1" vertex="1">
          <mxGeometry x="745" y="230" width="30" height="30" as="geometry" />
        </mxCell>
        <mxCell id="K9eEVIQUE-SVmg0WG71K-12" value="" style="endArrow=none;html=1;rounded=0;exitX=0.5;exitY=0;exitDx=0;exitDy=0;entryX=0;entryY=0.5;entryDx=0;entryDy=0;" parent="1" source="K9eEVIQUE-SVmg0WG71K-6" target="K9eEVIQUE-SVmg0WG71K-10" edge="1">
          <mxGeometry width="50" height="50" relative="1" as="geometry">
            <mxPoint x="795" y="260" as="sourcePoint" />
            <mxPoint x="845" y="210" as="targetPoint" />
          </mxGeometry>
        </mxCell>
        <mxCell id="K9eEVIQUE-SVmg0WG71K-13" value="" style="endArrow=none;html=1;rounded=0;exitX=0.5;exitY=0;exitDx=0;exitDy=0;entryX=0.5;entryY=1;entryDx=0;entryDy=0;" parent="1" source="K9eEVIQUE-SVmg0WG71K-8" target="K9eEVIQUE-SVmg0WG71K-10" edge="1">
          <mxGeometry width="50" height="50" relative="1" as="geometry">
            <mxPoint x="795" y="260" as="sourcePoint" />
            <mxPoint x="845" y="210" as="targetPoint" />
          </mxGeometry>
        </mxCell>
        <mxCell id="K9eEVIQUE-SVmg0WG71K-14" value="" style="endArrow=none;html=1;rounded=0;exitX=1;exitY=0.5;exitDx=0;exitDy=0;entryX=0;entryY=0.5;entryDx=0;entryDy=0;" parent="1" source="K9eEVIQUE-SVmg0WG71K-10" target="K9eEVIQUE-SVmg0WG71K-9" edge="1">
          <mxGeometry width="50" height="50" relative="1" as="geometry">
            <mxPoint x="795" y="260" as="sourcePoint" />
            <mxPoint x="845" y="210" as="targetPoint" />
          </mxGeometry>
        </mxCell>
        <mxCell id="K9eEVIQUE-SVmg0WG71K-15" value="fname" style="ellipse;whiteSpace=wrap;html=1;" parent="1" vertex="1">
          <mxGeometry x="425" y="190" width="90" height="40" as="geometry" />
        </mxCell>
        <mxCell id="K9eEVIQUE-SVmg0WG71K-16" value="lname" style="ellipse;whiteSpace=wrap;html=1;" parent="1" vertex="1">
          <mxGeometry x="425" y="240" width="90" height="40" as="geometry" />
        </mxCell>
        <mxCell id="K9eEVIQUE-SVmg0WG71K-17" value="dob" style="ellipse;whiteSpace=wrap;html=1;" parent="1" vertex="1">
          <mxGeometry x="425" y="290" width="90" height="40" as="geometry" />
        </mxCell>
        <mxCell id="K9eEVIQUE-SVmg0WG71K-18" value="country" style="ellipse;whiteSpace=wrap;html=1;" parent="1" vertex="1">
          <mxGeometry x="425" y="340" width="90" height="40" as="geometry" />
        </mxCell>
        <mxCell id="K9eEVIQUE-SVmg0WG71K-19" value="province" style="ellipse;whiteSpace=wrap;html=1;" parent="1" vertex="1">
          <mxGeometry x="425" y="390" width="90" height="40" as="geometry" />
        </mxCell>
        <mxCell id="K9eEVIQUE-SVmg0WG71K-20" value="bio" style="ellipse;whiteSpace=wrap;html=1;" parent="1" vertex="1">
          <mxGeometry x="425" y="440" width="90" height="40" as="geometry" />
        </mxCell>
        <mxCell id="K9eEVIQUE-SVmg0WG71K-21" value="fname" style="ellipse;whiteSpace=wrap;html=1;" parent="1" vertex="1">
          <mxGeometry x="1195" y="100" width="90" height="40" as="geometry" />
        </mxCell>
        <mxCell id="K9eEVIQUE-SVmg0WG71K-22" value="lname" style="ellipse;whiteSpace=wrap;html=1;" parent="1" vertex="1">
          <mxGeometry x="1195" y="150" width="90" height="40" as="geometry" />
        </mxCell>
        <mxCell id="K9eEVIQUE-SVmg0WG71K-23" value="dob" style="ellipse;whiteSpace=wrap;html=1;" parent="1" vertex="1">
          <mxGeometry x="1195" y="200" width="90" height="40" as="geometry" />
        </mxCell>
        <mxCell id="K9eEVIQUE-SVmg0WG71K-24" value="country" style="ellipse;whiteSpace=wrap;html=1;" parent="1" vertex="1">
          <mxGeometry x="1195" y="250" width="90" height="40" as="geometry" />
        </mxCell>
        <mxCell id="K9eEVIQUE-SVmg0WG71K-25" value="certification" style="ellipse;whiteSpace=wrap;html=1;" parent="1" vertex="1">
          <mxGeometry x="1195" y="300" width="90" height="40" as="geometry" />
        </mxCell>
        <mxCell id="K9eEVIQUE-SVmg0WG71K-26" value="name" style="ellipse;whiteSpace=wrap;html=1;" parent="1" vertex="1">
          <mxGeometry x="955" y="280" width="90" height="40" as="geometry" />
        </mxCell>
        <mxCell id="K9eEVIQUE-SVmg0WG71K-27" value="location" style="ellipse;whiteSpace=wrap;html=1;" parent="1" vertex="1">
          <mxGeometry x="955" y="330" width="90" height="40" as="geometry" />
        </mxCell>
        <mxCell id="K9eEVIQUE-SVmg0WG71K-28" value="bio" style="ellipse;whiteSpace=wrap;html=1;" parent="1" vertex="1">
          <mxGeometry x="955" y="380" width="90" height="40" as="geometry" />
        </mxCell>
        <mxCell id="K9eEVIQUE-SVmg0WG71K-29" value="PERSONAL_&lt;br&gt;RESULTS" style="rounded=0;whiteSpace=wrap;html=1;" parent="1" vertex="1">
          <mxGeometry x="353" y="760" width="120" height="60" as="geometry" />
        </mxCell>
        <mxCell id="K9eEVIQUE-SVmg0WG71K-31" value="RECORDS" style="shape=rhombus;perimeter=rhombusPerimeter;whiteSpace=wrap;html=1;align=center;" parent="1" vertex="1">
          <mxGeometry x="455" y="535" width="80" height="80" as="geometry" />
        </mxCell>
        <mxCell id="K9eEVIQUE-SVmg0WG71K-35" value="CONSIST_OF" style="shape=rhombus;perimeter=rhombusPerimeter;whiteSpace=wrap;html=1;align=center;" parent="1" vertex="1">
          <mxGeometry x="518" y="820" width="80" height="80" as="geometry" />
        </mxCell>
        <mxCell id="K9eEVIQUE-SVmg0WG71K-37" value="" style="endArrow=none;html=1;rounded=0;exitX=0;exitY=0.5;exitDx=0;exitDy=0;entryX=1;entryY=0.5;entryDx=0;entryDy=0;" parent="1" source="K9eEVIQUE-SVmg0WG71K-35" target="K9eEVIQUE-SVmg0WG71K-29" edge="1">
          <mxGeometry width="50" height="50" relative="1" as="geometry">
            <mxPoint x="703" y="920" as="sourcePoint" />
            <mxPoint x="753" y="870" as="targetPoint" />
          </mxGeometry>
        </mxCell>
        <mxCell id="K9eEVIQUE-SVmg0WG71K-38" value="" style="endArrow=none;html=1;rounded=0;exitX=0;exitY=0.5;exitDx=0;exitDy=0;entryX=1;entryY=0.5;entryDx=0;entryDy=0;" parent="1" source="K9eEVIQUE-SVmg0WG71K-43" target="K9eEVIQUE-SVmg0WG71K-35" edge="1">
          <mxGeometry width="50" height="50" relative="1" as="geometry">
            <mxPoint x="820" y="920" as="sourcePoint" />
            <mxPoint x="780" y="860" as="targetPoint" />
          </mxGeometry>
        </mxCell>
        <mxCell id="K9eEVIQUE-SVmg0WG71K-42" value="RACE" style="rounded=0;whiteSpace=wrap;html=1;" parent="1" vertex="1">
          <mxGeometry x="1005" y="1000" width="120" height="60" as="geometry" />
        </mxCell>
        <mxCell id="K9eEVIQUE-SVmg0WG71K-43" value="RACE_RESULTS" style="rounded=0;whiteSpace=wrap;html=1;" parent="1" vertex="1">
          <mxGeometry x="680" y="930" width="120" height="60" as="geometry" />
        </mxCell>
        <mxCell id="K9eEVIQUE-SVmg0WG71K-44" value="RACE_SPLIT_TIMES" style="rounded=0;whiteSpace=wrap;html=1;" parent="1" vertex="1">
          <mxGeometry x="680" y="1080" width="120" height="60" as="geometry" />
        </mxCell>
        <mxCell id="K9eEVIQUE-SVmg0WG71K-45" value="START_LIST" style="rounded=0;whiteSpace=wrap;html=1;" parent="1" vertex="1">
          <mxGeometry x="680" y="800" width="120" height="60" as="geometry" />
        </mxCell>
        <mxCell id="K9eEVIQUE-SVmg0WG71K-46" value="SCHEDULE" style="rounded=0;whiteSpace=wrap;html=1;" parent="1" vertex="1">
          <mxGeometry x="1005" y="750" width="120" height="60" as="geometry" />
        </mxCell>
        <mxCell id="K9eEVIQUE-SVmg0WG71K-47" value="COMPETITION" style="rounded=0;whiteSpace=wrap;html=1;" parent="1" vertex="1">
          <mxGeometry x="1300" y="800" width="120" height="60" as="geometry" />
        </mxCell>
        <mxCell id="K9eEVIQUE-SVmg0WG71K-48" value="CERTIFIES" style="rhombus;whiteSpace=wrap;html=1;" parent="1" vertex="1">
          <mxGeometry x="1205" y="500" width="80" height="80" as="geometry" />
        </mxCell>
        <mxCell id="K9eEVIQUE-SVmg0WG71K-49" value="" style="endArrow=none;html=1;rounded=0;entryX=0.5;entryY=0;entryDx=0;entryDy=0;exitX=0.5;exitY=1;exitDx=0;exitDy=0;" parent="1" source="K9eEVIQUE-SVmg0WG71K-9" target="K9eEVIQUE-SVmg0WG71K-48" edge="1">
          <mxGeometry width="50" height="50" relative="1" as="geometry">
            <mxPoint x="1065" y="620" as="sourcePoint" />
            <mxPoint x="1115" y="570" as="targetPoint" />
          </mxGeometry>
        </mxCell>
        <mxCell id="K9eEVIQUE-SVmg0WG71K-52" value="" style="endArrow=none;html=1;rounded=0;entryX=0.5;entryY=1;entryDx=0;entryDy=0;exitX=0.5;exitY=0;exitDx=0;exitDy=0;" parent="1" source="K9eEVIQUE-SVmg0WG71K-47" target="K9eEVIQUE-SVmg0WG71K-48" edge="1">
          <mxGeometry width="50" height="50" relative="1" as="geometry">
            <mxPoint x="1065" y="620" as="sourcePoint" />
            <mxPoint x="1115" y="570" as="targetPoint" />
          </mxGeometry>
        </mxCell>
        <mxCell id="KzdJdUAQ6dxu2kPKFFRh-1" value="sport" style="ellipse;whiteSpace=wrap;html=1;" parent="1" vertex="1">
          <mxGeometry x="253" y="690" width="90" height="40" as="geometry" />
        </mxCell>
        <mxCell id="KzdJdUAQ6dxu2kPKFFRh-2" value="distance" style="ellipse;whiteSpace=wrap;html=1;" parent="1" vertex="1">
          <mxGeometry x="253" y="740" width="90" height="40" as="geometry" />
        </mxCell>
        <mxCell id="KzdJdUAQ6dxu2kPKFFRh-3" value="competition" style="ellipse;whiteSpace=wrap;html=1;" parent="1" vertex="1">
          <mxGeometry x="253" y="790" width="90" height="40" as="geometry" />
        </mxCell>
        <mxCell id="KzdJdUAQ6dxu2kPKFFRh-4" value="date" style="ellipse;whiteSpace=wrap;html=1;" parent="1" vertex="1">
          <mxGeometry x="253" y="840" width="90" height="40" as="geometry" />
        </mxCell>
        <mxCell id="KzdJdUAQ6dxu2kPKFFRh-5" value="time" style="ellipse;whiteSpace=wrap;html=1;" parent="1" vertex="1">
          <mxGeometry x="253" y="890" width="90" height="40" as="geometry" />
        </mxCell>
        <mxCell id="KzdJdUAQ6dxu2kPKFFRh-6" value="POST" style="rounded=0;whiteSpace=wrap;html=1;" parent="1" vertex="1">
          <mxGeometry x="745" y="480" width="120" height="60" as="geometry" />
        </mxCell>
        <mxCell id="KzdJdUAQ6dxu2kPKFFRh-7" value="COMMENTS" style="rounded=0;whiteSpace=wrap;html=1;" parent="1" vertex="1">
          <mxGeometry x="745" y="620" width="120" height="60" as="geometry" />
        </mxCell>
        <mxCell id="QEQikVmFLl2FpNvXNwQt-1" value="time" style="ellipse;whiteSpace=wrap;html=1;" vertex="1" parent="1">
          <mxGeometry x="885" y="445" width="90" height="40" as="geometry" />
        </mxCell>
        <mxCell id="QEQikVmFLl2FpNvXNwQt-2" value="content" style="ellipse;whiteSpace=wrap;html=1;" vertex="1" parent="1">
          <mxGeometry x="885" y="495" width="90" height="40" as="geometry" />
        </mxCell>
        <mxCell id="QEQikVmFLl2FpNvXNwQt-3" value="link" style="ellipse;whiteSpace=wrap;html=1;" vertex="1" parent="1">
          <mxGeometry x="885" y="550" width="90" height="40" as="geometry" />
        </mxCell>
        <mxCell id="QEQikVmFLl2FpNvXNwQt-4" value="time" style="ellipse;whiteSpace=wrap;html=1;" vertex="1" parent="1">
          <mxGeometry x="640" y="605" width="90" height="40" as="geometry" />
        </mxCell>
        <mxCell id="QEQikVmFLl2FpNvXNwQt-5" value="content" style="ellipse;whiteSpace=wrap;html=1;" vertex="1" parent="1">
          <mxGeometry x="640" y="655" width="90" height="40" as="geometry" />
        </mxCell>
        <mxCell id="QEQikVmFLl2FpNvXNwQt-6" value="distance completed" style="ellipse;whiteSpace=wrap;html=1;" vertex="1" parent="1">
          <mxGeometry x="820" y="1065" width="90" height="40" as="geometry" />
        </mxCell>
        <mxCell id="QEQikVmFLl2FpNvXNwQt-7" value="cumulative time" style="ellipse;whiteSpace=wrap;html=1;" vertex="1" parent="1">
          <mxGeometry x="820" y="1120" width="90" height="40" as="geometry" />
        </mxCell>
        <mxCell id="QEQikVmFLl2FpNvXNwQt-8" value="split times" style="ellipse;whiteSpace=wrap;html=1;" vertex="1" parent="1">
          <mxGeometry x="820" y="1170" width="90" height="40" as="geometry" />
        </mxCell>
        <mxCell id="QEQikVmFLl2FpNvXNwQt-9" value="participant" style="ellipse;whiteSpace=wrap;html=1;" vertex="1" parent="1">
          <mxGeometry x="820" y="930" width="90" height="40" as="geometry" />
        </mxCell>
        <mxCell id="QEQikVmFLl2FpNvXNwQt-10" value="time" style="ellipse;whiteSpace=wrap;html=1;" vertex="1" parent="1">
          <mxGeometry x="820" y="985" width="90" height="40" as="geometry" />
        </mxCell>
        <mxCell id="QEQikVmFLl2FpNvXNwQt-11" value="participant" style="ellipse;whiteSpace=wrap;html=1;" vertex="1" parent="1">
          <mxGeometry x="820" y="795" width="90" height="40" as="geometry" />
        </mxCell>
        <mxCell id="QEQikVmFLl2FpNvXNwQt-12" value="starting number" style="ellipse;whiteSpace=wrap;html=1;" vertex="1" parent="1">
          <mxGeometry x="820" y="850" width="90" height="40" as="geometry" />
        </mxCell>
        <mxCell id="QEQikVmFLl2FpNvXNwQt-13" value="date" style="ellipse;whiteSpace=wrap;html=1;" vertex="1" parent="1">
          <mxGeometry x="1445" y="760" width="90" height="40" as="geometry" />
        </mxCell>
        <mxCell id="QEQikVmFLl2FpNvXNwQt-14" value="organizer" style="ellipse;whiteSpace=wrap;html=1;" vertex="1" parent="1">
          <mxGeometry x="1445" y="820" width="90" height="40" as="geometry" />
        </mxCell>
        <mxCell id="QEQikVmFLl2FpNvXNwQt-15" value="location" style="ellipse;whiteSpace=wrap;html=1;" vertex="1" parent="1">
          <mxGeometry x="1445" y="880" width="90" height="40" as="geometry" />
        </mxCell>
        <mxCell id="QEQikVmFLl2FpNvXNwQt-16" value="INCLUDES" style="rhombus;whiteSpace=wrap;html=1;" vertex="1" parent="1">
          <mxGeometry x="1025" y="860" width="80" height="80" as="geometry" />
        </mxCell>
        <mxCell id="QEQikVmFLl2FpNvXNwQt-17" value="" style="endArrow=none;html=1;rounded=0;exitX=0.5;exitY=0;exitDx=0;exitDy=0;entryX=0.5;entryY=1;entryDx=0;entryDy=0;" edge="1" parent="1" source="QEQikVmFLl2FpNvXNwQt-16" target="K9eEVIQUE-SVmg0WG71K-46">
          <mxGeometry width="50" height="50" relative="1" as="geometry">
            <mxPoint x="1110" y="890" as="sourcePoint" />
            <mxPoint x="1160" y="840" as="targetPoint" />
          </mxGeometry>
        </mxCell>
        <mxCell id="QEQikVmFLl2FpNvXNwQt-18" value="" style="endArrow=none;html=1;rounded=0;exitX=0.5;exitY=1;exitDx=0;exitDy=0;entryX=0.5;entryY=0;entryDx=0;entryDy=0;" edge="1" parent="1" source="QEQikVmFLl2FpNvXNwQt-16" target="K9eEVIQUE-SVmg0WG71K-42">
          <mxGeometry width="50" height="50" relative="1" as="geometry">
            <mxPoint x="1110" y="890" as="sourcePoint" />
            <mxPoint x="1160" y="840" as="targetPoint" />
          </mxGeometry>
        </mxCell>
        <mxCell id="QEQikVmFLl2FpNvXNwQt-20" value="sport" style="ellipse;whiteSpace=wrap;html=1;" vertex="1" parent="1">
          <mxGeometry x="1140" y="950" width="90" height="40" as="geometry" />
        </mxCell>
        <mxCell id="QEQikVmFLl2FpNvXNwQt-21" value="distance" style="ellipse;whiteSpace=wrap;html=1;" vertex="1" parent="1">
          <mxGeometry x="1140" y="1010" width="90" height="40" as="geometry" />
        </mxCell>
        <mxCell id="QEQikVmFLl2FpNvXNwQt-22" value="gender" style="ellipse;whiteSpace=wrap;html=1;" vertex="1" parent="1">
          <mxGeometry x="1140" y="1070" width="90" height="40" as="geometry" />
        </mxCell>
        <mxCell id="QEQikVmFLl2FpNvXNwQt-23" value="info" style="ellipse;whiteSpace=wrap;html=1;" vertex="1" parent="1">
          <mxGeometry x="1445" y="940" width="90" height="40" as="geometry" />
        </mxCell>
        <mxCell id="QEQikVmFLl2FpNvXNwQt-24" value="sport" style="ellipse;whiteSpace=wrap;html=1;" vertex="1" parent="1">
          <mxGeometry x="1445" y="1000" width="90" height="40" as="geometry" />
        </mxCell>
        <mxCell id="QEQikVmFLl2FpNvXNwQt-25" value="level/classification" style="ellipse;whiteSpace=wrap;html=1;" vertex="1" parent="1">
          <mxGeometry x="1140" y="1130" width="90" height="40" as="geometry" />
        </mxCell>
        <mxCell id="QEQikVmFLl2FpNvXNwQt-26" value="time" style="ellipse;whiteSpace=wrap;html=1;" vertex="1" parent="1">
          <mxGeometry x="1140" y="1190" width="90" height="40" as="geometry" />
        </mxCell>
      </root>
    </mxGraphModel>
  </diagram>
</mxfile>
